#!OML:ASF F:\VICON\USERDATA\INSTALL\rory3\rory3.ASF
:FULLY-SPECIFIED
:DEGREES
204
root 0.568753 18.2087 6.70794 -5.08479 3.44226 -5.17243
lowerback 10.8465 -1.05401 1.89673
upperback 0.226213 -0.969356 3.21614
thorax -5.8313 -0.483402 2.45877
lowerneck -16.2547 -4.27502 -1.74204
upperneck 20.928 -6.07968 2.40362
head 9.41409 -2.70516 0.334504
rclavicle 6.28657e-015 9.93923e-015
rhumerus -34.088 -27.2599 -72.0754
rradius 23.3694
rwrist 10.4987
rhand -16.7101 20.2457
rfingers 7.12502
rthumb 9.5151 -9.51946
lclavicle 6.28657e-015 9.93923e-015
lhumerus -28.4352 -2.92916 83.7364
lradius 29.3097
lwrist 7.57105
lhand -31.2134 20.9859
lfingers 7.12502
lthumb -4.48925 50.9184
rfemur -9.90528 2.78711 31.9334
rtibia 27.1997
rfoot -9.51103 -8.73485
rtoes 6.51299
lfemur -9.49654 -0.435879 -13.5401
ltibia 67.5412
lfoot 3.99374 -8.51673
ltoes -13.391
205
root 0.567016 18.2265 6.87971 -5.14924 3.14778 -5.28525
lowerback 10.9684 -0.887145 2.12308
upperback 0.154288 -0.713157 3.17688
thorax -5.98635 -0.364159 2.25388
lowerneck -16.1056 -4.23657 -1.65853
upperneck 21.0225 -6.03546 2.32895
head 9.41316 -2.68691 0.303498
rclavicle 1.94126e-016 -1.94809e-014
rhumerus -33.8342 -27.1288 -72.2281
rradius 22.9915
rwrist 9.61544
rhand -16.2569 20.1024
rfingers 7.12502
rthumb 9.9523 -9.64231
lclavicle 1.94126e-016 -1.94809e-014
lhumerus -28.9085 -2.89192 83.8324
lradius 29.8365
lwrist 8.29961
lhand -29.6577 24.8119
lfingers 7.12502
lthumb -2.98692 54.7707
rfemur -9.11255 2.90083 32.1703
rtibia 26.9718
rfoot -9.89636 -8.70923
rtoes 6.37772
lfemur -10.525 -0.0403761 -13.4882
ltibia 67.9553
lfoot 2.68566 -7.2789
ltoes -11.4805
206
root 0.569948 18.2387 7.04339 -5.0182 2.88787 -5.24843
lowerback 10.8706 -0.744813 2.27887
upperback 0.166915 -0.514847 3.07982
thorax -5.92458 -0.272622 2.02971
lowerneck -16.475 -4.25863 -1.58944
upperneck 21.2707 -6.06323 2.21851
head 9.56293 -2.69851 0.240183
rclavicle 1.28387e-014 -3.02153e-014
rhumerus -33.1534 -26.468 -72.9153
rradius 22.7547
rwrist 8.10372
rhand -14.9736 17.3064
rfingers 7.12502
rthumb 11.1902 -12.3752
lclavicle 1.28387e-014 -3.02153e-014
lhumerus -29.0183 -3.04115 83.9376
lradius 29.3796
lwrist 7.64763
lhand -30.3696 24.919
lfingers 7.12502
lthumb -3.67435 54.867
rfemur -8.64419 2.96668 32.1776
rtibia 26.8
rfoot -10.2023 -8.57303
rtoes 7.31869
lfemur -11.7909 0.275599 -13.6251
ltibia 68.2171
lfoot 1.81428 -6.30676
ltoes -8.19589
207
root 0.571736 18.2411 7.20651 -4.80819 2.60268 -5.02253
lowerback 10.6241 -0.561617 2.23341
upperback 0.153838 -0.296246 2.93027
thorax -5.80366 -0.165984 1.85934
lowerneck -16.6429 -4.24154 -1.54348
upperneck 21.4345 -6.04511 2.17431
head 9.64831 -2.68684 0.214578
rclavicle 2.31196e-014 -8.34896e-015
rhumerus -32.4546 -25.2255 -73.7662
rradius 22.8854
rwrist 6.57943
rhand -14.1827 15.9798
rfingers 7.12502
rthumb 11.9529 -13.6589
lclavicle 2.31196e-014 -8.34896e-015
lhumerus -29.2326 -3.22209 84.0484
lradius 28.7353
lwrist 7.63776
lhand -31.0112 21.4353
lfingers 7.12502
lthumb -4.29399 51.3717
rfemur -8.11836 2.94273 32.0169
rtibia 26.7396
rfoot -10.697 -8.50337
rtoes 7.86908
lfemur -13.1159 0.607336 -13.9971
ltibia 68.2958
lfoot 1.05764 -5.4795
ltoes -6.78375
208
root 0.571956 18.2392 7.36467 -4.7911 2.28021 -5.13447
lowerback 10.6759 -0.388036 2.51581
upperback 0.110922 -0.0293365 2.88259
thorax -5.88257 -0.0437672 1.60992
lowerneck -16.455 -4.19824 -1.67593
upperneck 21.384 -5.9659 2.24709
head 9.60087 -2.65538 0.276521
rclavicle -5.97907e-015 -9.14409e-015
rhumerus -31.949 -24.3998 -74.2788
rradius 23.1834
rwrist 6.44564
rhand -15.8664 20.0019
rfingers 7.12502
rthumb 10.3291 -9.72447
lclavicle -5.97907e-015 -9.14409e-015
lhumerus -29.5164 -3.15964 84.1617
lradius 28.4642
lwrist 7.69647
lhand -31.1724 21.3524
lfingers 7.12502
lthumb -4.4496 51.2856
rfemur -7.56849 3.13522 32.2467
rtibia 26.8127
rfoot -11.3613 -8.56981
rtoes 7.96122
lfemur -14.2724 1.02049 -13.9598
ltibia 68.2355
lfoot 0.127888 -4.67727
ltoes -7.98735
209
root 0.575576 18.2358 7.51984 -4.7662 1.94816 -5.11373
lowerback 10.7544 -0.208645 2.74109
upperback 0.116603 0.231454 2.73075
thorax -5.92159 0.0754362 1.28317
lowerneck -16.486 -4.18 -1.74267
upperneck 21.3835 -5.97185 2.4529
head 9.61616 -2.63934 0.356904
rclavicle 1.31493e-014 -2.22639e-014
rhumerus -31.3827 -23.8083 -74.8792
rradius 23.4841
rwrist 6.44721
rhand -18.6613 28.9064
rfingers 7.12502
rthumb 7.63204 -0.935923
lclavicle 1.31493e-014 -2.22639e-014
lhumerus -29.7236 -3.14853 84.153
lradius 28.2227
lwrist 7.64376
lhand -30.3976 22.8692
lfingers 7.12502
lthumb -3.70145 52.8168
rfemur -7.03543 3.16003 32.3028
rtibia 26.8783
rfoot -12.0599 -8.44843
rtoes 7.48191
lfemur -15.3035 1.34832 -14.1049
ltibia 67.9893
lfoot -1.07104 -3.78717
ltoes -9.56067
210
root 0.581183 18.2315 7.67842 -4.58033 1.75121 -4.82768
lowerback 10.6276 -0.0500353 2.68277
upperback 0.139588 0.415851 2.526
thorax -5.82464 0.165366 1.07114
lowerneck -16.7664 -4.18487 -1.69707
upperneck 21.5525 -6.00038 2.47829
head 9.72813 -2.6396 0.346991
rclavicle 6.51796e-015 9.74045e-015
rhumerus -30.7747 -23.311 -75.3833
rradius 23.8124
rwrist 6.52133
rhand -17.6769 22.994
rfingers 7.12502
rthumb 8.58211 -6.81154
lclavicle 6.51796e-015 9.74045e-015
lhumerus -29.9285 -3.18168 84.1409
lradius 28.2286
lwrist 7.73974
lhand -29.3147 24.1721
lfingers 7.12502
lthumb -2.65562 54.1353
rfemur -6.5655 2.98536 32.0246
rtibia 26.8686
rfoot -12.6271 -8.16869
rtoes 7.16868
lfemur -16.5403 1.53883 -14.6078
ltibia 67.5885
lfoot -1.92294 -2.90949
ltoes -10.2312
211
root 0.579304 18.2268 7.83457 -4.46905 1.46301 -4.98421
lowerback 10.5579 0.139181 2.94301
upperback 0.206534 0.693702 2.53112
thorax -5.7118 0.295936 0.886817
lowerneck -17.0087 -4.19076 -1.77185
upperneck 21.6527 -5.97369 2.4209
head 9.80854 -2.63509 0.337052
rclavicle 2.5842e-015 -4.37326e-015
rhumerus -30.0586 -22.7759 -75.7602
rradius 24.2589
rwrist 6.81877
rhand -17.6235 22.6821
rfingers 7.12502
rthumb 8.63367 -7.12138
lclavicle 2.5842e-015 -4.37326e-015
lhumerus -30.0225 -3.34502 84.3823
lradius 28.0117
lwrist 8.71249
lhand -30.0376 17.902
lfingers 7.12502
lthumb -3.35379 47.8554
rfemur -6.09248 3.13723 32.3145
rtibia 26.89
rfoot -13.0418 -8.26583
rtoes 7.3367
lfemur -17.8526 1.7595 -14.528
ltibia 67.0907
lfoot -2.48686 -2.3326
ltoes -10.2864
212
root 0.575731 18.2119 7.98498 -4.30246 1.16096 -5.35372
lowerback 10.5376 0.26356 3.33569
upperback 0.138373 0.91202 2.58771
thorax -5.76657 0.392228 0.692482
lowerneck -16.8986 -4.09515 -1.78331
upperneck 21.555 -5.8349 2.42697
head 9.75073 -2.57371 0.363092
rclavicle -1.71918e-014 -1.61016e-014
rhumerus -29.4993 -21.6803 -76.4153
rradius 24.8935
rwrist 6.38604
rhand -17.9895 22.871
rfingers 7.12502
rthumb 8.28046 -6.94675
lclavicle -1.71918e-014 -1.61016e-014
lhumerus -30.517 -3.63312 84.636
lradius 27.6932
lwrist 10.736
lhand -30.2872 5.64695
lfingers 7.12502
lthumb -3.59483 35.5964
rfemur -5.81474 3.55769 32.8708
rtibia 26.9981
rfoot -13.3399 -8.64373
rtoes 7.16017
lfemur -19.2086 1.95657 -14.1511
ltibia 66.6505
lfoot -3.4177 -1.87657
ltoes -10.0865
213
root 0.577957 18.1977 8.13879 -4.16054 0.960302 -5.48286
lowerback 10.5386 0.311502 3.63463
upperback 0.0588934 1.01135 2.51593
thorax -5.84374 0.430001 0.434331
lowerneck -16.9019 -4.00291 -1.74036
upperneck 21.5446 -5.70998 2.39897
head 9.74247 -2.51567 0.36333
rclavicle 3.047e-015 1.35174e-014
rhumerus -29.0159 -20.5206 -77.101
rradius 25.4435
rwrist 5.52206
rhand -17.9965 22.0167
rfingers 7.12502
rthumb 8.27376 -7.80125
lclavicle 3.047e-015 1.35174e-014
lhumerus -30.9907 -2.81278 84.1988
lradius 28.2469
lwrist 8.26201
lhand -29.1415 22.9667
lfingers 7.12502
lthumb -2.48839 52.9319
rfemur -5.51541 3.64482 33.0962
rtibia 27.1621
rfoot -13.7359 -8.87511
rtoes 6.14869
lfemur -20.3353 2.026 -14.0987
ltibia 66.0485
lfoot -4.21144 -1.23515
ltoes -8.93609
214
root 0.585317 18.17 8.28821 -4.034 0.709801 -5.56443
lowerback 10.668 0.437794 3.97659
upperback -0.0120759 1.22551 2.40902
thorax -5.9787 0.520972 0.0963234
lowerneck -16.9426 -4.0507 -1.65612
upperneck 21.4278 -5.75775 2.25029
head 9.70201 -2.54913 0.291765
rclavicle -1.98443e-014 -2.08724e-014
rhumerus -28.5593 -19.9285 -77.4823
rradius 25.7652
rwrist 5.09913
rhand -17.6745 20.6493
rfingers 7.12502
rthumb 8.58445 -9.15614
lclavicle -1.98443e-014 -2.08724e-014
lhumerus -31.4015 -2.69817 84.1943
lradius 28.3732
lwrist 8.45604
lhand -28.2397 24.3835
lfingers 7.12502
lthumb -1.61745 54.3571
rfemur -5.20368 3.57827 33.2318
rtibia 27.4132
rfoot -14.3291 -8.78773
rtoes 5.36181
lfemur -20.9591 2.14752 -14.0861
ltibia 65.4937
lfoot -5.60343 -0.255597
ltoes -9.15337
215
root 0.592614 18.1501 8.43787 -3.83067 0.566285 -5.34097
lowerback 10.7893 0.581994 3.95433
upperback -0.131312 1.41701 2.24931
thorax -6.16442 0.608968 -0.090325
lowerneck -16.9501 -4.10113 -1.67059
upperneck 21.4047 -5.82227 2.24807
head 9.697 -2.58054 0.284713
rclavicle 1.54571e-014 -4.17448e-015
rhumerus -28.2345 -18.8646 -77.9054
rradius 26.3481
rwrist 4.18696
rhand -17.3367 17.8354
rfingers 7.12502
rthumb 8.91044 -11.9564
lclavicle 1.54571e-014 -4.17448e-015
lhumerus -31.7805 -2.60146 84.1929
lradius 28.5405
lwrist 8.37271
lhand -27.4366 23.9948
lfingers 7.12502
lthumb -0.841735 53.9729
rfemur -4.97288 3.58062 33.0195
rtibia 27.682
rfoot -14.9522 -8.7748
rtoes 5.84279
lfemur -21.9185 2.11661 -14.4942
ltibia 64.5511
lfoot -6.91878 0.54248
ltoes -12.181
216
root 0.59441 18.1277 8.58695 -3.77616 0.430489 -5.65823
lowerback 11.021 0.629547 4.34977
upperback -0.193495 1.54879 2.26562
thorax -6.34845 0.657343 -0.319219
lowerneck -17.1353 -4.07088 -1.64513
upperneck 21.5528 -5.7872 2.23587
head 9.78192 -2.55924 0.275934
rclavicle 1.27082e-014 1.72943e-014
rhumerus -27.7879 -18.0248 -78.3267
rradius 27.0021
rwrist 3.60124
rhand -17.2219 18.092
rfingers 7.12502
rthumb 9.0212 -11.6951
lclavicle 1.27082e-014 1.72943e-014
lhumerus -32.0925 -2.52911 84.1598
lradius 28.3959
lwrist 8.58604
lhand -27.6713 23.6488
lfingers 7.12502
lthumb -1.06847 53.6259
rfemur -4.60116 3.77223 33.4773
rtibia 27.8802
rfoot -15.3994 -9.10648
rtoes 6.29031
lfemur -22.9626 2.07594 -14.2258
ltibia 63.4112
lfoot -4.94918 0.806081
ltoes -3.70823
217
root 0.596532 18.1098 8.73541 -3.65579 0.26768 -5.93511
lowerback 11.2441 0.704906 4.74618
upperback -0.271729 1.71783 2.24452
thorax -6.54057 0.721839 -0.594862
lowerneck -17.4363 -4.06084 -1.50339
upperneck 21.6805 -5.77746 2.08888
head 9.87359 -2.55473 0.195645
rclavicle -4.80345e-015 1.66979e-014
rhumerus -27.2213 -17.4697 -78.6898
rradius 27.2621
rwrist 3.11689
rhand -17.9851 20.2813
rfingers 7.12502
rthumb 8.28475 -9.53622
lclavicle -4.80345e-015 1.66979e-014
lhumerus -32.424 -2.23526 84.0556
lradius 28.2919
lwrist 8.49444
lhand -27.7833 22.9698
lfingers 7.12502
lthumb -1.17659 52.9463
rfemur -4.21581 4.06451 33.9029
rtibia 27.9357
rfoot -15.7526 -9.59006
rtoes 6.34529
lfemur -23.9082 2.02414 -13.9851
ltibia 61.9986
lfoot -8.11738 1.72272
ltoes -13.7568
